<?xml version="1.0" encoding="iso-8859-1"?>
<!-- Generator: Adobe Illustrator 19.0.0, SVG Export Plug-In . SVG Version: 6.00 Build 0)  -->
<svg version="1.1" id="Layer_1" xmlns="http://www.w3.org/2000/svg" xmlns:xlink="http://www.w3.org/1999/xlink" x="0px" y="0px"
	 viewBox="0 0 512 512" style="enable-background:new 0 0 512 512;" xml:space="preserve">
<polygon style="fill:#F2F2F4;" points="451.765,512 60.235,512 60.235,0 331.294,0 451.765,120.471 "/>
<polygon style="fill:#DFDFE1;" points="331.294,120.471 331.294,0 256,0 256,512 451.765,512 451.765,120.471 "/>
<path style="fill:#6DC180;" d="M391.529,240.941c0,99.882-80.824,180.706-180.706,180.706h-60.235v-60.235
	c0-99.882,80.824-180.706,180.706-180.706h60.235V240.941z"/>
<path style="fill:#5CA15D;" d="M391.529,240.941v-60.235L150.588,421.647h60.235C310.706,421.647,391.529,340.823,391.529,240.941z"
	/>
<rect x="165.643" y="309.457" transform="matrix(-0.7071 -0.7071 0.7071 -0.7071 49.8032 788.6231)" style="fill:#4E894D;" width="45.176" height="149.081"/>
<g>
</g>
<g>
</g>
<g>
</g>
<g>
</g>
<g>
</g>
<g>
</g>
<g>
</g>
<g>
</g>
<g>
</g>
<g>
</g>
<g>
</g>
<g>
</g>
<g>
</g>
<g>
</g>
<g>
</g>
</svg>
