<?xml version="1.0" encoding="iso-8859-1"?>
<!-- Generator: Adobe Illustrator 19.0.0, SVG Export Plug-In . SVG Version: 6.00 Build 0)  -->
<svg version="1.1" id="Layer_1" xmlns="http://www.w3.org/2000/svg" xmlns:xlink="http://www.w3.org/1999/xlink" x="0px" y="0px"
	 viewBox="0 0 297.001 297.001" style="enable-background:new 0 0 297.001 297.001;" xml:space="preserve">
<g>
	<g id="XMLID_50_">
		<g>
			<path style="fill:#2ECC71;" d="M226.605,14.541c19.81,9.91,28.76,33.73,20.38,54.23c-4.44,10.86-12.87,19.22-23.74,23.54
				c-10.88,4.33-22.74,4.05-33.39-0.79c-9.57-4.34-17.18-12.03-21.41-21.64c-0.79-1.81-2.58-2.98-4.55-2.98c0,0-0.01,0-0.02,0
				c-1.96,0-3.74,1.15-4.55,2.94l-2.09,4.68l-3.26-7.18l14.3-31.53c0.07-0.11,0.13-0.23,0.18-0.36l0.17-0.4
				c4.84-10.66,13.58-18.68,24.61-22.59S216.115,9.291,226.605,14.541z M233.715,64.581c6.57-14.47,0.13-31.58-14.33-38.15
				c-14.47-6.56-31.58-0.13-38.15,14.34c-6.56,14.47-0.13,31.58,14.34,38.14c3.8,1.73,7.84,2.59,11.89,2.59
				c3.42,0,6.85-0.62,10.15-1.86C224.815,76.941,230.535,71.591,233.715,64.581z"/>
			<path style="fill:#2ECC71;" d="M140.175,97.771l3.65,7.48c-7.3,5.82-10.02,16.07-6.01,24.92l5.82,13.03l-61.28,134.79
				c-5.4-22.31-3.23-45.64,6.4-66.88L140.175,97.771z"/>
			<path style="fill:#16A085;" d="M208.235,211.111c9.62,21.19,11.8,44.47,6.44,66.74l-67.76-151.77
				c-2.48-5.47-0.05-11.94,5.42-14.43c1.23-0.55,2.18-1.58,2.63-2.85c0.46-1.27,0.38-2.66-0.21-3.87l-17.15-35.23
				c-0.84-1.72-2.58-2.8-4.49-2.8c-0.03,0-0.06,0-0.09,0c-1.95,0.04-3.69,1.2-4.47,2.98c-4.24,9.61-11.84,17.3-21.41,21.64
				c-10.66,4.84-22.52,5.12-33.4,0.79c-10.87-4.32-19.3-12.68-23.74-23.54c-8.37-20.5,0.58-44.32,20.38-54.23
				c10.5-5.25,22.35-5.99,33.38-2.08s19.77,11.93,24.6,22.59c0.01,0,0.03,0.07,0.04,0.07l0.14,0.33c0.05,0.13,0.11,0.25,0.17,0.36
				L208.235,211.111z M163.115,125.691c0-1.31-0.53-2.6-1.46-3.53c-0.93-0.92-2.22-1.46-3.53-1.46c-1.32,0-2.61,0.54-3.53,1.46
				c-0.93,0.93-1.46,2.21-1.46,3.53c0,1.31,0.53,2.6,1.46,3.53c0.93,0.92,2.21,1.46,3.53,1.46c1.3,0,2.59-0.54,3.53-1.46
				C162.585,128.291,163.115,127.001,163.115,125.691z M101.425,78.911c14.47-6.56,20.9-23.67,14.33-38.14
				c-6.56-14.47-23.67-20.9-38.14-14.34c-14.47,6.57-20.9,23.68-14.34,38.15c3.18,7.01,8.9,12.36,16.11,15.06
				c3.3,1.25,6.73,1.86,10.15,1.86C93.585,81.501,97.625,80.641,101.425,78.911z"/>
			<path d="M231.075,5.621c24.44,12.22,35.49,41.62,25.15,66.92c-5.48,13.4-15.88,23.71-29.29,29.05
				c-13.42,5.33-28.06,4.98-41.2-0.98c-8.64-3.92-15.98-10.04-21.34-17.69l-1.67,3.71l54.6,120.36
				c12.52,27.59,13.54,58.41,2.88,86.78c-0.71,1.89-2.5,3.17-4.52,3.23c-0.05,0-0.1,0-0.15,0c-1.96,0-3.75-1.15-4.55-2.95
				l-61.92-138.69l-63.06,138.72c-0.82,1.78-2.59,2.92-4.54,2.92c-0.06,0-0.12,0-0.17,0c-2.02-0.07-3.8-1.35-4.51-3.23
				c-10.66-28.37-9.63-59.19,2.89-86.78l54.83-120.87l-1.7-3.49c-5.38,7.78-12.8,14.01-21.54,17.98
				c-13.15,5.96-27.78,6.31-41.2,0.98c-13.42-5.34-23.82-15.65-29.29-29.05c-10.34-25.3,0.71-54.7,25.15-66.92
				c12.94-6.48,27.56-7.39,41.17-2.56c13.61,4.82,24.39,14.71,30.35,27.86c0.04,0.08,0.08,0.17,0.12,0.25
				c0.03,0.07,0.06,0.13,0.09,0.2l10.84,23.9l10.85-23.9c0.03-0.07,0.06-0.13,0.09-0.2c0.04-0.09,0.08-0.18,0.11-0.26
				c5.96-13.13,16.74-23.03,30.36-27.85C203.515-1.769,218.135-0.859,231.075,5.621z M246.985,68.771
				c8.38-20.5-0.57-44.32-20.38-54.23c-10.49-5.25-22.34-5.99-33.37-2.08s-19.77,11.93-24.61,22.59l-0.17,0.4
				c-0.05,0.13-0.11,0.25-0.18,0.36l-14.3,31.53l3.26,7.18l2.09-4.68c0.81-1.79,2.59-2.94,4.55-2.94c0.01,0,0.02,0,0.02,0
				c1.97,0,3.76,1.17,4.55,2.98c4.23,9.61,11.84,17.3,21.41,21.64c10.65,4.84,22.51,5.12,33.39,0.79
				C234.115,87.991,242.545,79.631,246.985,68.771z M214.675,277.851c5.36-22.27,3.18-45.55-6.44-66.74l-79.52-175.3
				c-0.06-0.11-0.12-0.23-0.17-0.36l-0.14-0.33c-0.01,0-0.03-0.07-0.04-0.07c-4.83-10.66-13.57-18.68-24.6-22.59
				s-22.88-3.17-33.38,2.08c-19.8,9.91-28.75,33.73-20.38,54.23c4.44,10.86,12.87,19.22,23.74,23.54
				c10.88,4.33,22.74,4.05,33.4-0.79c9.57-4.34,17.17-12.03,21.41-21.64c0.78-1.78,2.52-2.94,4.47-2.98c0.03,0,0.06,0,0.09,0
				c1.91,0,3.65,1.08,4.49,2.8l17.15,35.23c0.59,1.21,0.67,2.6,0.21,3.87c-0.45,1.27-1.4,2.3-2.63,2.85
				c-5.47,2.49-7.9,8.96-5.42,14.43L214.675,277.851z M143.825,105.251l-3.65-7.48l-51.42,113.34c-9.63,21.24-11.8,44.57-6.4,66.88
				l61.28-134.79l-5.82-13.03C133.805,121.321,136.525,111.071,143.825,105.251z"/>
			<path d="M219.385,26.431c14.46,6.57,20.9,23.68,14.33,38.15c-3.18,7.01-8.9,12.36-16.1,15.06c-3.3,1.24-6.73,1.86-10.15,1.86
				c-4.05,0-8.09-0.86-11.89-2.59c-14.47-6.56-20.9-23.67-14.34-38.14C187.805,26.301,204.915,19.871,219.385,26.431z
				 M224.635,60.461c4.29-9.46,0.08-20.65-9.38-24.94s-20.64-0.09-24.93,9.37c-4.29,9.46-0.09,20.65,9.37,24.94
				c4.58,2.08,9.7,2.25,14.41,0.48C218.815,68.541,222.555,65.041,224.635,60.461z"/>
			<path d="M161.655,122.161c0.93,0.93,1.46,2.22,1.46,3.53s-0.53,2.6-1.46,3.53c-0.94,0.92-2.23,1.46-3.53,1.46
				c-1.32,0-2.6-0.54-3.53-1.46c-0.93-0.93-1.46-2.22-1.46-3.53c0-1.32,0.53-2.6,1.46-3.53c0.92-0.92,2.21-1.46,3.53-1.46
				C159.435,120.701,160.725,121.241,161.655,122.161z"/>
			<path d="M115.755,40.771c6.57,14.47,0.14,31.58-14.33,38.14c-3.8,1.73-7.84,2.59-11.89,2.59c-3.42,0-6.85-0.61-10.15-1.86
				c-7.21-2.7-12.93-8.05-16.11-15.06c-6.56-14.47-0.13-31.58,14.34-38.15C92.085,19.871,109.195,26.301,115.755,40.771z
				 M97.305,69.831c9.46-4.29,13.66-15.48,9.37-24.94c-3.15-6.94-10.02-11.05-17.18-11.05c-2.6,0-5.24,0.54-7.76,1.68
				c-9.46,4.29-13.66,15.48-9.37,24.94c2.08,4.58,5.82,8.08,10.53,9.85C87.605,72.071,92.715,71.911,97.305,69.831z"/>
		</g>
	</g>
</g>
<g>
</g>
<g>
</g>
<g>
</g>
<g>
</g>
<g>
</g>
<g>
</g>
<g>
</g>
<g>
</g>
<g>
</g>
<g>
</g>
<g>
</g>
<g>
</g>
<g>
</g>
<g>
</g>
<g>
</g>
</svg>
